# xmcd
#
# Track frame offsets:
#	150
#	12744
#	25318
#	36993
#	45996
#	55158
#	65254
#	76782
#	83824
#	96516
#
# Disc length: 1413 seconds
#
# Revision: 1
# Processed by: cddbd v1.5.2PL0 Copyright (c) Steve Scherf et al.
# Submitted via: FairStars CD Ripper 1.90
#
DISCID=7805830a
DTITLE=Conway Twitty - Conway Twitty CD 2
DYEAR=2007
DGENRE=Country
TTITLE0=I See the Want To in Your Eyes
TTITLE1=I've Alrerady Loved You in My Mind
TTITLE2=Sitting In a Dim Cafe
TTITLE3=I Wonder If You Had Told Her About Me
TTITLE4=Don't Go Too Far
TTITLE5=Let Me Be the Judge
TTITLE6=You Made Me What I Am Today
TTITLE7=Treat Me Mean Treat Me Cruel
TTITLE8=Reputation
TTITLE9=Ever Since You Went Away
EXTD=
EXTT0=
EXTT1=
EXTT2=
EXTT3=
EXTT4=
EXTT5=
EXTT6=
EXTT7=
EXTT8=
EXTT9=
PLAYORDER=
